# xmcd
#
# Track frame offsets:
#	150
#	11645
#	23210
#	35070
#	55400
#	71757
#	85622
#	103810
#	115412
#	130147
#	142142
#	154857
#	173442
#	185030
#	198322
#
# Disc length: 2838
#
# Revision: 4
# Processed by: cddbd v1.5.1PL0 Copyright (c) Steve Scherf et al.
# Submitted via: OrangeCD 4.1
# Normalized: r2:DSETVAR1,TDELIM( - ),TSWAP
#
DISCID=d60b140f
DTITLE=Various Artist - #1 Country Gold, Vol. 2
DYEAR=1900
DGENRE=
TTITLE0=Freddy Fender - BEFORE THE NEXT TEARDROP FALLS
TTITLE1=John Conlee - BACK SIDE OF THIRTY
TTITLE2=Gene Watson - 14 CARAT MIND
TTITLE3=Merle Haggard - I THINK I'LL JUST STAY HERE AND DRINK
TTITLE4=Waylon Jennings - ROSE IN PARADISE
TTITLE5=Steve Warner - LYNDA
TTITLE6=Juice Newton - BREAK IT TO ME GENTLY
TTITLE7=Crystal Gayle - DON'T IT MAKE MY BROWN EYES BLUE
TTITLE8=Christy Lane - ONE DAY AT A TIME
TTITLE9=Hank Thompson - WILD SIDE OF LIFE
TTITLE10=Sonny James - SINCE I MET YOU BABY
TTITLE11=Juice Newton - THE SWEETEST THING
TTITLE12=George Jones - SHE THINKS I STILL CARE
TTITLE13=Crystal Gayle - TALKING IN YOUR SLEEP
TTITLE14=Glen Campbell - RHINESTONE COWBOY
EXTD=
EXTT0=
EXTT1=
EXTT2=
EXTT3=
EXTT4=
EXTT5=
EXTT6=
EXTT7=
EXTT8=
EXTT9=
EXTT10=
EXTT11=
EXTT12=
EXTT13=
EXTT14=
PLAYORDER=
